<?xml version="1.0" encoding="utf-8" ?>
<svg baseProfile="full" height="1024" version="1.1" width="1024" xmlns="http://www.w3.org/2000/svg" xmlns:ev="http://www.w3.org/2001/xml-events" xmlns:xlink="http://www.w3.org/1999/xlink"><defs /><polygon fill="#3267ED" points="211.0,646.0 211.0,647.0 212.0,648.0 212.0,657.0 293.0,657.0 293.0,646.0" /><polygon fill="#3267ED" points="473.0,487.0 484.0,498.0 484.0,499.0 491.0,506.0 491.0,507.0 499.0,515.0 499.0,516.0 507.0,524.0 507.0,525.0 509.0,527.0 510.0,527.0 513.0,524.0 513.0,523.0 520.0,516.0 520.0,515.0 527.0,508.0 527.0,507.0 533.0,501.0 533.0,500.0 538.0,495.0 538.0,494.0 542.0,490.0 542.0,489.0 544.0,487.0" /><polygon fill="#3267ED" points="688.0,484.0 687.0,485.0 584.0,485.0 583.0,486.0 582.0,486.0 574.0,494.0 573.0,494.0 560.0,507.0 559.0,507.0 545.0,521.0 544.0,521.0 529.0,536.0 529.0,537.0 526.0,540.0 526.0,541.0 524.0,543.0 524.0,544.0 523.0,545.0 523.0,546.0 522.0,547.0 522.0,548.0 521.0,549.0 521.0,550.0 520.0,551.0 520.0,553.0 519.0,554.0 519.0,557.0 518.0,558.0 518.0,561.0 517.0,562.0 517.0,566.0 516.0,567.0 516.0,573.0 515.0,574.0 515.0,750.0 514.0,751.0 430.0,751.0 429.0,752.0 359.0,752.0 358.0,751.0 350.0,751.0 349.0,750.0 345.0,750.0 344.0,749.0 342.0,749.0 341.0,748.0 339.0,748.0 338.0,747.0 337.0,747.0 336.0,746.0 335.0,746.0 334.0,745.0 333.0,745.0 332.0,744.0 331.0,744.0 330.0,743.0 329.0,743.0 328.0,742.0 327.0,742.0 325.0,740.0 324.0,740.0 322.0,738.0 321.0,738.0 308.0,725.0 308.0,724.0 305.0,721.0 305.0,720.0 304.0,719.0 304.0,718.0 303.0,717.0 303.0,716.0 301.0,714.0 301.0,712.0 300.0,711.0 300.0,710.0 299.0,709.0 299.0,707.0 298.0,706.0 298.0,705.0 297.0,704.0 297.0,702.0 296.0,701.0 296.0,698.0 295.0,697.0 295.0,694.0 294.0,693.0 294.0,689.0 293.0,688.0 293.0,677.0 292.0,676.0 292.0,671.0 246.0,671.0 245.0,672.0 244.0,671.0 243.0,672.0 237.0,672.0 236.0,671.0 234.0,671.0 233.0,672.0 211.0,672.0 211.0,678.0 212.0,679.0 212.0,694.0 213.0,695.0 213.0,704.0 214.0,705.0 214.0,710.0 215.0,711.0 215.0,716.0 216.0,717.0 216.0,720.0 217.0,721.0 217.0,724.0 218.0,725.0 218.0,727.0 219.0,728.0 219.0,730.0 220.0,731.0 220.0,733.0 221.0,734.0 221.0,736.0 222.0,737.0 222.0,738.0 223.0,739.0 223.0,741.0 224.0,742.0 224.0,743.0 225.0,744.0 225.0,745.0 226.0,746.0 226.0,748.0 227.0,749.0 227.0,750.0 228.0,751.0 228.0,752.0 229.0,753.0 229.0,754.0 230.0,755.0 230.0,756.0 232.0,758.0 232.0,759.0 233.0,760.0 233.0,761.0 235.0,763.0 235.0,764.0 236.0,765.0 236.0,766.0 238.0,768.0 238.0,769.0 240.0,771.0 240.0,772.0 243.0,775.0 243.0,776.0 246.0,779.0 246.0,780.0 251.0,785.0 251.0,786.0 264.0,799.0 265.0,799.0 270.0,804.0 271.0,804.0 275.0,808.0 276.0,808.0 279.0,811.0 280.0,811.0 282.0,813.0 283.0,813.0 284.0,814.0 285.0,814.0 287.0,816.0 288.0,816.0 290.0,818.0 291.0,818.0 292.0,819.0 293.0,819.0 294.0,820.0 295.0,820.0 296.0,821.0 297.0,821.0 298.0,822.0 299.0,822.0 300.0,823.0 301.0,823.0 302.0,824.0 303.0,824.0 304.0,825.0 305.0,825.0 306.0,826.0 307.0,826.0 308.0,827.0 310.0,827.0 311.0,828.0 313.0,828.0 314.0,829.0 316.0,829.0 317.0,830.0 319.0,830.0 320.0,831.0 322.0,831.0 323.0,832.0 325.0,832.0 326.0,833.0 329.0,833.0 330.0,834.0 334.0,834.0 335.0,835.0 340.0,835.0 341.0,836.0 346.0,836.0 347.0,837.0 357.0,837.0 358.0,838.0 679.0,838.0 680.0,837.0 686.0,837.0 687.0,836.0 691.0,836.0 692.0,835.0 695.0,835.0 696.0,834.0 700.0,834.0 701.0,833.0 703.0,833.0 704.0,832.0 706.0,832.0 707.0,831.0 709.0,831.0 710.0,830.0 712.0,830.0 713.0,829.0 715.0,829.0 716.0,828.0 717.0,828.0 718.0,827.0 720.0,827.0 721.0,826.0 722.0,826.0 723.0,825.0 725.0,825.0 726.0,824.0 727.0,824.0 728.0,823.0 729.0,823.0 730.0,822.0 731.0,822.0 732.0,821.0 733.0,821.0 734.0,820.0 735.0,820.0 736.0,819.0 737.0,819.0 739.0,817.0 740.0,817.0 741.0,816.0 742.0,816.0 744.0,814.0 745.0,814.0 747.0,812.0 748.0,812.0 750.0,810.0 751.0,810.0 755.0,806.0 756.0,806.0 761.0,801.0 762.0,801.0 775.0,788.0 775.0,787.0 779.0,783.0 779.0,782.0 783.0,778.0 783.0,777.0 785.0,775.0 785.0,774.0 787.0,772.0 787.0,771.0 789.0,769.0 789.0,768.0 791.0,766.0 791.0,765.0 792.0,764.0 792.0,763.0 793.0,762.0 793.0,761.0 794.0,760.0 794.0,759.0 796.0,757.0 796.0,756.0 797.0,755.0 797.0,753.0 798.0,752.0 798.0,751.0 799.0,750.0 799.0,749.0 800.0,748.0 800.0,747.0 801.0,746.0 801.0,744.0 802.0,743.0 802.0,741.0 803.0,740.0 803.0,739.0 804.0,738.0 804.0,735.0 805.0,734.0 805.0,732.0 806.0,731.0 806.0,729.0 807.0,728.0 807.0,725.0 808.0,724.0 808.0,720.0 809.0,719.0 809.0,715.0 810.0,714.0 810.0,707.0 811.0,706.0 811.0,700.0 732.0,700.0 732.0,702.0 731.0,703.0 731.0,708.0 730.0,709.0 730.0,711.0 729.0,712.0 729.0,714.0 728.0,715.0 728.0,716.0 727.0,717.0 727.0,718.0 726.0,719.0 726.0,720.0 725.0,721.0 725.0,722.0 724.0,723.0 724.0,724.0 722.0,726.0 722.0,727.0 717.0,732.0 717.0,733.0 713.0,737.0 712.0,737.0 708.0,741.0 707.0,741.0 705.0,743.0 704.0,743.0 702.0,745.0 701.0,745.0 700.0,746.0 698.0,746.0 697.0,747.0 695.0,747.0 694.0,748.0 693.0,748.0 692.0,749.0 690.0,749.0 689.0,750.0 687.0,750.0 686.0,751.0 682.0,751.0 681.0,752.0 675.0,752.0 674.0,753.0 640.0,753.0 639.0,752.0 579.0,752.0 578.0,751.0 575.0,751.0 574.0,750.0 572.0,750.0 571.0,749.0 570.0,749.0 568.0,747.0 567.0,747.0 561.0,741.0 561.0,740.0 559.0,738.0 559.0,736.0 558.0,735.0 558.0,734.0 557.0,733.0 557.0,730.0 556.0,729.0 556.0,578.0 557.0,577.0 557.0,573.0 558.0,572.0 558.0,570.0 559.0,569.0 559.0,567.0 560.0,566.0 560.0,565.0 561.0,564.0 561.0,563.0 570.0,554.0 571.0,554.0 572.0,553.0 573.0,553.0 574.0,552.0 575.0,552.0 576.0,551.0 579.0,551.0 580.0,550.0 583.0,550.0 584.0,549.0 650.0,549.0 651.0,548.0 708.0,548.0 709.0,549.0 714.0,549.0 715.0,550.0 719.0,550.0 720.0,551.0 722.0,551.0 723.0,552.0 725.0,552.0 726.0,553.0 728.0,553.0 729.0,554.0 731.0,554.0 732.0,555.0 733.0,555.0 735.0,557.0 736.0,557.0 737.0,558.0 738.0,558.0 739.0,559.0 740.0,559.0 743.0,562.0 744.0,562.0 755.0,573.0 755.0,574.0 757.0,576.0 757.0,577.0 759.0,579.0 759.0,580.0 760.0,581.0 760.0,582.0 761.0,583.0 761.0,584.0 762.0,585.0 762.0,587.0 763.0,588.0 763.0,589.0 764.0,590.0 764.0,592.0 763.0,593.0 762.0,592.0 762.0,591.0 761.0,590.0 761.0,589.0 760.0,588.0 760.0,587.0 757.0,584.0 757.0,583.0 750.0,576.0 749.0,576.0 746.0,573.0 745.0,573.0 743.0,571.0 742.0,571.0 741.0,570.0 740.0,570.0 739.0,569.0 738.0,569.0 737.0,568.0 736.0,568.0 735.0,567.0 733.0,567.0 732.0,566.0 731.0,566.0 730.0,565.0 728.0,565.0 727.0,564.0 724.0,564.0 723.0,563.0 721.0,563.0 720.0,562.0 715.0,562.0 714.0,561.0 709.0,561.0 708.0,560.0 677.0,560.0 676.0,561.0 612.0,561.0 611.0,562.0 586.0,562.0 585.0,563.0 583.0,563.0 582.0,564.0 581.0,564.0 580.0,565.0 579.0,565.0 577.0,567.0 576.0,567.0 575.0,568.0 575.0,569.0 572.0,572.0 572.0,573.0 571.0,574.0 571.0,575.0 570.0,576.0 570.0,578.0 569.0,579.0 569.0,583.0 568.0,584.0 568.0,721.0 569.0,722.0 569.0,725.0 570.0,726.0 570.0,728.0 571.0,729.0 571.0,730.0 573.0,732.0 573.0,733.0 576.0,736.0 577.0,736.0 579.0,738.0 580.0,738.0 581.0,739.0 583.0,739.0 584.0,740.0 594.0,740.0 592.0,738.0 591.0,738.0 587.0,734.0 587.0,733.0 586.0,732.0 586.0,731.0 585.0,730.0 585.0,728.0 584.0,727.0 584.0,592.0 585.0,591.0 585.0,588.0 586.0,587.0 586.0,586.0 587.0,585.0 587.0,584.0 592.0,579.0 593.0,579.0 595.0,577.0 597.0,577.0 598.0,576.0 639.0,576.0 640.0,575.0 701.0,575.0 702.0,574.0 706.0,574.0 707.0,575.0 711.0,575.0 712.0,576.0 714.0,576.0 715.0,577.0 716.0,577.0 718.0,579.0 719.0,579.0 727.0,587.0 727.0,588.0 728.0,589.0 728.0,590.0 729.0,591.0 729.0,592.0 730.0,593.0 730.0,595.0 731.0,596.0 731.0,599.0 732.0,600.0 732.0,616.0 812.0,616.0 812.0,608.0 811.0,607.0 811.0,577.0 810.0,576.0 810.0,568.0 809.0,567.0 809.0,564.0 808.0,563.0 808.0,559.0 807.0,558.0 807.0,556.0 806.0,555.0 806.0,553.0 805.0,552.0 805.0,550.0 804.0,549.0 804.0,548.0 803.0,547.0 803.0,546.0 801.0,544.0 801.0,543.0 800.0,542.0 800.0,541.0 799.0,540.0 799.0,539.0 796.0,536.0 796.0,535.0 793.0,532.0 793.0,531.0 788.0,526.0 788.0,525.0 781.0,518.0 780.0,518.0 774.0,512.0 773.0,512.0 770.0,509.0 769.0,509.0 767.0,507.0 766.0,507.0 764.0,505.0 763.0,505.0 761.0,503.0 760.0,503.0 759.0,502.0 758.0,502.0 757.0,501.0 756.0,501.0 755.0,500.0 754.0,500.0 752.0,498.0 751.0,498.0 750.0,497.0 749.0,497.0 748.0,496.0 746.0,496.0 745.0,495.0 744.0,495.0 743.0,494.0 742.0,494.0 741.0,493.0 739.0,493.0 738.0,492.0 736.0,492.0 735.0,491.0 734.0,491.0 733.0,490.0 730.0,490.0 729.0,489.0 726.0,489.0 725.0,488.0 722.0,488.0 721.0,487.0 717.0,487.0 716.0,486.0 712.0,486.0 711.0,485.0 697.0,485.0 696.0,484.0" /><polygon fill="#3267ED" points="731.0,418.0 731.0,429.0 732.0,430.0 811.0,430.0 811.0,427.0 810.0,426.0 810.0,418.0" /><polygon fill="#3267ED" points="212.0,418.0 212.0,431.0 213.0,432.0 279.0,432.0 280.0,433.0 280.0,434.0 279.0,435.0 279.0,445.0 278.0,446.0 216.0,446.0 215.0,445.0 213.0,445.0 213.0,472.0 214.0,473.0 214.0,481.0 215.0,482.0 215.0,487.0 216.0,488.0 216.0,491.0 217.0,492.0 217.0,495.0 218.0,496.0 218.0,498.0 219.0,499.0 219.0,501.0 220.0,502.0 220.0,504.0 221.0,505.0 221.0,507.0 222.0,508.0 222.0,509.0 223.0,510.0 223.0,511.0 224.0,512.0 224.0,513.0 225.0,514.0 225.0,515.0 226.0,516.0 226.0,517.0 227.0,518.0 227.0,519.0 228.0,520.0 228.0,521.0 230.0,523.0 230.0,524.0 231.0,525.0 231.0,526.0 233.0,528.0 233.0,529.0 235.0,531.0 235.0,532.0 238.0,535.0 238.0,536.0 243.0,541.0 243.0,542.0 253.0,552.0 254.0,552.0 259.0,557.0 260.0,557.0 263.0,560.0 264.0,560.0 266.0,562.0 267.0,562.0 269.0,564.0 270.0,564.0 271.0,565.0 272.0,565.0 274.0,567.0 275.0,567.0 276.0,568.0 277.0,568.0 278.0,569.0 279.0,569.0 280.0,570.0 281.0,570.0 282.0,571.0 283.0,571.0 284.0,572.0 286.0,572.0 287.0,573.0 288.0,573.0 289.0,574.0 291.0,574.0 292.0,575.0 293.0,575.0 294.0,576.0 296.0,576.0 297.0,577.0 299.0,577.0 300.0,578.0 304.0,578.0 305.0,579.0 308.0,579.0 309.0,580.0 314.0,580.0 315.0,581.0 492.0,581.0 493.0,580.0 493.0,577.0 494.0,576.0 494.0,571.0 495.0,570.0 495.0,556.0 494.0,555.0 494.0,550.0 493.0,549.0 493.0,545.0 492.0,544.0 492.0,542.0 491.0,541.0 491.0,540.0 490.0,539.0 490.0,538.0 489.0,537.0 489.0,536.0 488.0,535.0 488.0,534.0 487.0,533.0 487.0,532.0 484.0,529.0 484.0,528.0 476.0,520.0 475.0,520.0 470.0,515.0 469.0,515.0 465.0,511.0 464.0,511.0 461.0,508.0 460.0,508.0 457.0,505.0 456.0,505.0 453.0,502.0 452.0,502.0 449.0,499.0 448.0,499.0 445.0,496.0 444.0,496.0 441.0,493.0 440.0,493.0 437.0,490.0 436.0,490.0 433.0,487.0 432.0,487.0 430.0,485.0 316.0,485.0 315.0,484.0 313.0,484.0 312.0,483.0 311.0,483.0 310.0,482.0 309.0,482.0 308.0,481.0 307.0,481.0 305.0,479.0 304.0,479.0 298.0,473.0 298.0,472.0 297.0,471.0 297.0,470.0 295.0,468.0 295.0,466.0 294.0,465.0 294.0,463.0 293.0,462.0 293.0,457.0 292.0,456.0 292.0,418.0" /><polygon fill="#3267ED" points="651.0,381.0 650.0,382.0 640.0,382.0 639.0,383.0 634.0,383.0 633.0,384.0 629.0,384.0 628.0,385.0 625.0,385.0 624.0,386.0 623.0,386.0 623.0,388.0 622.0,389.0 622.0,393.0 621.0,394.0 621.0,397.0 620.0,398.0 620.0,400.0 619.0,401.0 619.0,402.0 618.0,403.0 618.0,404.0 617.0,405.0 617.0,406.0 616.0,407.0 616.0,408.0 610.0,414.0 609.0,414.0 608.0,415.0 606.0,415.0 605.0,414.0 604.0,414.0 599.0,409.0 599.0,408.0 598.0,407.0 598.0,405.0 597.0,404.0 597.0,402.0 596.0,401.0 596.0,398.0 595.0,398.0 594.0,399.0 593.0,399.0 592.0,400.0 591.0,400.0 590.0,401.0 589.0,401.0 587.0,403.0 586.0,403.0 584.0,405.0 583.0,405.0 580.0,408.0 579.0,408.0 573.0,414.0 573.0,415.0 569.0,419.0 569.0,420.0 567.0,422.0 567.0,423.0 566.0,424.0 566.0,426.0 573.0,433.0 574.0,433.0 577.0,436.0 578.0,436.0 579.0,437.0 580.0,437.0 582.0,439.0 584.0,439.0 585.0,440.0 586.0,440.0 587.0,441.0 589.0,441.0 590.0,442.0 592.0,442.0 593.0,443.0 600.0,443.0 601.0,444.0 604.0,444.0 605.0,443.0 612.0,443.0 613.0,442.0 616.0,442.0 617.0,441.0 620.0,441.0 621.0,440.0 622.0,440.0 623.0,439.0 625.0,439.0 626.0,438.0 627.0,438.0 628.0,437.0 629.0,437.0 630.0,436.0 631.0,436.0 633.0,434.0 634.0,434.0 636.0,432.0 637.0,432.0 641.0,428.0 642.0,428.0 644.0,426.0 644.0,425.0 649.0,420.0 649.0,419.0 651.0,417.0 651.0,416.0 653.0,414.0 653.0,413.0 654.0,412.0 654.0,411.0 655.0,410.0 655.0,409.0 656.0,408.0 656.0,407.0 657.0,406.0 657.0,404.0 658.0,403.0 658.0,402.0 659.0,401.0 659.0,398.0 660.0,397.0 660.0,394.0 661.0,393.0 661.0,387.0 662.0,386.0 662.0,382.0 657.0,382.0 656.0,381.0" /><polygon fill="#3267ED" points="363.0,381.0 362.0,382.0 362.0,385.0 363.0,386.0 363.0,393.0 364.0,394.0 364.0,398.0 365.0,399.0 365.0,402.0 366.0,403.0 366.0,404.0 367.0,405.0 367.0,407.0 368.0,408.0 368.0,409.0 369.0,410.0 369.0,411.0 370.0,412.0 370.0,413.0 372.0,415.0 372.0,416.0 373.0,417.0 373.0,418.0 375.0,420.0 375.0,421.0 379.0,425.0 379.0,426.0 383.0,430.0 384.0,430.0 387.0,433.0 388.0,433.0 391.0,436.0 392.0,436.0 393.0,437.0 394.0,437.0 395.0,438.0 396.0,438.0 397.0,439.0 398.0,439.0 399.0,440.0 401.0,440.0 402.0,441.0 403.0,441.0 404.0,442.0 407.0,442.0 408.0,443.0 415.0,443.0 416.0,444.0 419.0,444.0 420.0,443.0 427.0,443.0 428.0,442.0 431.0,442.0 432.0,441.0 434.0,441.0 435.0,440.0 437.0,440.0 438.0,439.0 440.0,439.0 441.0,438.0 442.0,438.0 443.0,437.0 444.0,437.0 445.0,436.0 446.0,436.0 448.0,434.0 449.0,434.0 451.0,432.0 452.0,432.0 458.0,426.0 457.0,425.0 457.0,424.0 456.0,423.0 456.0,422.0 453.0,419.0 453.0,418.0 450.0,415.0 450.0,414.0 443.0,407.0 442.0,407.0 439.0,404.0 438.0,404.0 436.0,402.0 435.0,402.0 434.0,401.0 433.0,401.0 432.0,400.0 431.0,400.0 429.0,398.0 427.0,398.0 427.0,402.0 426.0,403.0 426.0,404.0 425.0,405.0 425.0,407.0 424.0,408.0 424.0,409.0 419.0,414.0 418.0,414.0 417.0,415.0 415.0,415.0 414.0,414.0 413.0,414.0 412.0,413.0 411.0,413.0 408.0,410.0 408.0,409.0 406.0,407.0 406.0,406.0 404.0,404.0 404.0,402.0 403.0,401.0 403.0,399.0 402.0,398.0 402.0,396.0 401.0,395.0 401.0,390.0 400.0,389.0 400.0,386.0 398.0,386.0 397.0,385.0 395.0,385.0 394.0,384.0 390.0,384.0 389.0,383.0 383.0,383.0 382.0,382.0 372.0,382.0 371.0,381.0" /><polygon fill="#3267ED" points="496.0,238.0 495.0,239.0 420.0,239.0 420.0,240.0 421.0,241.0 421.0,242.0 426.0,247.0 427.0,247.0 428.0,248.0 429.0,248.0 430.0,249.0 589.0,249.0 590.0,248.0 592.0,248.0 594.0,246.0 595.0,246.0 599.0,242.0 599.0,241.0 600.0,240.0 600.0,238.0" /><polygon fill="#3267ED" points="217.0,117.0 217.0,185.0 218.0,186.0 218.0,286.0 219.0,287.0 219.0,294.0 220.0,295.0 220.0,300.0 221.0,301.0 221.0,304.0 222.0,305.0 222.0,307.0 223.0,308.0 223.0,310.0 224.0,311.0 224.0,313.0 225.0,314.0 225.0,315.0 226.0,316.0 226.0,317.0 227.0,318.0 227.0,320.0 228.0,321.0 228.0,322.0 229.0,323.0 229.0,324.0 230.0,325.0 230.0,326.0 231.0,327.0 231.0,328.0 232.0,329.0 232.0,330.0 233.0,331.0 233.0,332.0 234.0,333.0 234.0,334.0 235.0,335.0 235.0,336.0 236.0,337.0 236.0,338.0 237.0,339.0 237.0,340.0 238.0,341.0 238.0,342.0 239.0,343.0 239.0,344.0 240.0,345.0 240.0,346.0 242.0,348.0 242.0,349.0 243.0,350.0 243.0,351.0 244.0,352.0 244.0,353.0 245.0,354.0 245.0,356.0 244.0,357.0 244.0,358.0 242.0,360.0 242.0,361.0 241.0,362.0 241.0,363.0 240.0,364.0 240.0,365.0 239.0,366.0 239.0,367.0 238.0,368.0 238.0,369.0 237.0,370.0 237.0,371.0 236.0,372.0 236.0,374.0 235.0,375.0 235.0,376.0 234.0,377.0 234.0,378.0 233.0,379.0 233.0,381.0 232.0,382.0 232.0,384.0 231.0,385.0 231.0,387.0 230.0,388.0 230.0,390.0 229.0,391.0 229.0,394.0 228.0,395.0 227.0,394.0 227.0,386.0 226.0,385.0 227.0,384.0 227.0,383.0 226.0,382.0 226.0,351.0 225.0,352.0 225.0,353.0 224.0,354.0 224.0,355.0 223.0,356.0 223.0,357.0 222.0,358.0 222.0,359.0 221.0,360.0 221.0,362.0 220.0,363.0 220.0,365.0 219.0,366.0 219.0,368.0 218.0,369.0 218.0,371.0 217.0,372.0 217.0,375.0 216.0,376.0 216.0,379.0 215.0,380.0 215.0,384.0 214.0,385.0 214.0,393.0 213.0,394.0 213.0,404.0 293.0,404.0 293.0,400.0 294.0,399.0 294.0,395.0 295.0,394.0 295.0,391.0 296.0,390.0 296.0,388.0 297.0,387.0 297.0,385.0 298.0,384.0 298.0,381.0 299.0,380.0 299.0,379.0 300.0,378.0 300.0,377.0 301.0,376.0 301.0,375.0 302.0,374.0 302.0,373.0 303.0,372.0 303.0,371.0 305.0,369.0 305.0,368.0 307.0,366.0 307.0,365.0 318.0,354.0 319.0,354.0 321.0,352.0 322.0,352.0 324.0,350.0 325.0,350.0 327.0,348.0 328.0,348.0 330.0,346.0 331.0,346.0 332.0,345.0 333.0,345.0 334.0,344.0 335.0,344.0 336.0,343.0 337.0,343.0 338.0,342.0 340.0,342.0 341.0,341.0 343.0,341.0 344.0,340.0 347.0,340.0 348.0,339.0 353.0,339.0 354.0,338.0 362.0,338.0 363.0,337.0 367.0,337.0 368.0,338.0 369.0,337.0 370.0,338.0 371.0,337.0 374.0,337.0 375.0,338.0 376.0,337.0 639.0,337.0 640.0,338.0 671.0,338.0 672.0,339.0 676.0,339.0 677.0,340.0 680.0,340.0 681.0,341.0 682.0,341.0 683.0,342.0 685.0,342.0 686.0,343.0 687.0,343.0 688.0,344.0 689.0,344.0 690.0,345.0 691.0,345.0 692.0,346.0 693.0,346.0 694.0,347.0 695.0,347.0 697.0,349.0 698.0,349.0 699.0,350.0 700.0,350.0 703.0,353.0 704.0,353.0 715.0,364.0 715.0,365.0 718.0,368.0 718.0,369.0 719.0,370.0 719.0,371.0 721.0,373.0 721.0,374.0 722.0,375.0 722.0,377.0 723.0,378.0 723.0,379.0 724.0,380.0 724.0,382.0 725.0,383.0 725.0,385.0 726.0,386.0 726.0,389.0 727.0,390.0 727.0,393.0 728.0,394.0 728.0,397.0 729.0,398.0 729.0,402.0 730.0,403.0 730.0,404.0 811.0,404.0 811.0,394.0 810.0,393.0 810.0,387.0 809.0,386.0 809.0,381.0 808.0,380.0 808.0,377.0 807.0,376.0 807.0,374.0 806.0,373.0 806.0,372.0 805.0,371.0 805.0,369.0 804.0,368.0 804.0,366.0 803.0,365.0 803.0,364.0 802.0,363.0 802.0,362.0 801.0,361.0 801.0,360.0 800.0,359.0 800.0,358.0 799.0,357.0 799.0,356.0 797.0,354.0 797.0,353.0 796.0,352.0 796.0,353.0 797.0,354.0 797.0,381.0 796.0,382.0 796.0,394.0 795.0,395.0 793.0,393.0 793.0,389.0 792.0,388.0 792.0,386.0 791.0,385.0 791.0,383.0 790.0,382.0 790.0,381.0 789.0,380.0 789.0,378.0 788.0,377.0 788.0,376.0 787.0,375.0 787.0,373.0 786.0,372.0 786.0,371.0 785.0,370.0 785.0,369.0 784.0,368.0 784.0,367.0 783.0,366.0 783.0,365.0 782.0,364.0 782.0,363.0 781.0,362.0 781.0,360.0 779.0,358.0 779.0,357.0 778.0,356.0 778.0,355.0 780.0,353.0 780.0,352.0 781.0,351.0 781.0,350.0 782.0,349.0 782.0,348.0 784.0,346.0 784.0,345.0 785.0,344.0 785.0,343.0 786.0,342.0 786.0,341.0 787.0,340.0 787.0,339.0 788.0,338.0 788.0,337.0 789.0,336.0 789.0,335.0 790.0,334.0 790.0,333.0 791.0,332.0 791.0,331.0 792.0,330.0 792.0,329.0 793.0,328.0 793.0,327.0 794.0,326.0 794.0,325.0 795.0,324.0 795.0,322.0 796.0,321.0 796.0,320.0 797.0,319.0 797.0,318.0 798.0,317.0 798.0,315.0 799.0,314.0 799.0,313.0 800.0,312.0 800.0,310.0 801.0,309.0 801.0,308.0 802.0,307.0 802.0,305.0 803.0,304.0 803.0,301.0 804.0,300.0 804.0,297.0 805.0,296.0 805.0,291.0 806.0,290.0 806.0,142.0 807.0,141.0 807.0,140.0 806.0,139.0 806.0,138.0 807.0,137.0 807.0,118.0 806.0,118.0 803.0,121.0 802.0,121.0 800.0,123.0 799.0,123.0 796.0,126.0 795.0,126.0 793.0,128.0 792.0,128.0 790.0,130.0 789.0,130.0 786.0,133.0 785.0,133.0 783.0,135.0 782.0,135.0 780.0,137.0 779.0,137.0 776.0,140.0 775.0,140.0 773.0,142.0 772.0,142.0 769.0,145.0 768.0,145.0 766.0,147.0 765.0,147.0 763.0,149.0 762.0,149.0 759.0,152.0 758.0,152.0 756.0,154.0 755.0,154.0 752.0,157.0 751.0,157.0 749.0,159.0 748.0,159.0 745.0,162.0 744.0,162.0 742.0,164.0 741.0,164.0 739.0,166.0 738.0,166.0 735.0,169.0 734.0,169.0 732.0,171.0 731.0,171.0 728.0,174.0 727.0,174.0 724.0,177.0 723.0,177.0 720.0,180.0 719.0,180.0 717.0,182.0 716.0,182.0 713.0,185.0 712.0,185.0 709.0,188.0 708.0,188.0 705.0,191.0 704.0,191.0 701.0,194.0 700.0,194.0 697.0,197.0 696.0,197.0 693.0,200.0 692.0,200.0 689.0,203.0 688.0,203.0 685.0,206.0 684.0,206.0 681.0,209.0 680.0,209.0 677.0,212.0 676.0,212.0 674.0,214.0 673.0,214.0 670.0,217.0 669.0,217.0 666.0,220.0 665.0,220.0 662.0,223.0 661.0,223.0 658.0,226.0 657.0,226.0 654.0,229.0 653.0,229.0 650.0,232.0 649.0,232.0 646.0,235.0 645.0,235.0 642.0,238.0 641.0,238.0 638.0,241.0 637.0,241.0 634.0,244.0 633.0,244.0 630.0,247.0 629.0,247.0 626.0,250.0 625.0,250.0 623.0,252.0 622.0,252.0 619.0,255.0 618.0,255.0 615.0,258.0 614.0,258.0 611.0,261.0 610.0,261.0 607.0,264.0 606.0,264.0 604.0,266.0 419.0,266.0 418.0,265.0 417.0,265.0 414.0,262.0 413.0,262.0 410.0,259.0 409.0,259.0 405.0,255.0 404.0,255.0 401.0,252.0 400.0,252.0 397.0,249.0 396.0,249.0 393.0,246.0 392.0,246.0 389.0,243.0 388.0,243.0 385.0,240.0 384.0,240.0 381.0,237.0 380.0,237.0 377.0,234.0 376.0,234.0 373.0,231.0 372.0,231.0 369.0,228.0 368.0,228.0 365.0,225.0 364.0,225.0 361.0,222.0 360.0,222.0 357.0,219.0 356.0,219.0 352.0,215.0 351.0,215.0 349.0,213.0 348.0,213.0 345.0,210.0 344.0,210.0 341.0,207.0 340.0,207.0 337.0,204.0 336.0,204.0 333.0,201.0 332.0,201.0 329.0,198.0 328.0,198.0 325.0,195.0 324.0,195.0 320.0,191.0 319.0,191.0 317.0,189.0 316.0,189.0 313.0,186.0 312.0,186.0 309.0,183.0 308.0,183.0 305.0,180.0 304.0,180.0 301.0,177.0 300.0,177.0 297.0,174.0 296.0,174.0 293.0,171.0 292.0,171.0 289.0,168.0 288.0,168.0 285.0,165.0 284.0,165.0 282.0,163.0 281.0,163.0 278.0,160.0 277.0,160.0 275.0,158.0 274.0,158.0 271.0,155.0 270.0,155.0 267.0,152.0 266.0,152.0 264.0,150.0 263.0,150.0 260.0,147.0 259.0,147.0 257.0,145.0 256.0,145.0 253.0,142.0 252.0,142.0 250.0,140.0 249.0,140.0 246.0,137.0 245.0,137.0 243.0,135.0 242.0,135.0 239.0,132.0 238.0,132.0 236.0,130.0 235.0,130.0 232.0,127.0 231.0,127.0 229.0,125.0 228.0,125.0 226.0,123.0 225.0,123.0 222.0,120.0 221.0,120.0 218.0,117.0" /></svg>